# xmcd
#
# Track frame offsets:
#	150
#	18220
#	34195
#	50840
#	68975
#	85735
#	100345
#	117902
#	144505
#	160285
#
# Disc length: 2359 seconds
#
# Revision: 1
# Processed by: cddbd v1.5.1PL0 Copyright (c) Steve Scherf et al.
# Submitted via: dBpowerAMP V4.0
#
DISCID=8409350a
DTITLE=Various Artist - RonnieHenson;Motown314530626-2
DYEAR=1998
DGENRE=R&B
TTITLE0=EverybodyLovesAStar(Edward'EddieF'Ferrell,Mookie&TaraGeter-Tillman;1998,RonnieHenson,Baltimore,MD,featuringA+) - RonnieHenson,Baltimore,MD,featuringA+
TTITLE1=What'ChaGot(ChadElliott,EricRucker,AlWest,TaraGeter-Tillman;1998,RonnieHenson,Baltimore,MD) - RonnieHenson,Baltimore,MD
TTITLE2=NextToYou(NormanWhitfield;1998,RonnieHenson,Baltimore,MD) - RonnieHenson,Baltimore,MD
TTITLE3=WhatAreWeGonnaDo(ChadElliott,LewisTillman,AlWest,TaraGeter-Tillman;1998,RonnieHenson,Baltimore,MD) - RonnieHenson,Baltimore,MD
TTITLE4=ThaBomb(RashadSmith,ArmandoColon,EricRucker,TaraGeter-Tillman;1998,RonnieHenson,Baltimore,MD) - RonnieHenson,Baltimore,MD
TTITLE5=BoyOrGirl{Part2}(ChadElliott,LewisTillman,AlWest,TaraGeter-Tillman;1998,RonnieHenson,Baltimore,MD,featuringRufusBlaq) - RonnieHenson,Baltimore,MD,featuringRufusBlaq
TTITLE6=WhenAndWhere(BigBob;1998,RonnieHenson,Baltimore,MD) - RonnieHenson,Baltimore,MD
TTITLE7=WithAStranger(RashadSmith,AvonMarshall,TaraGeter-Tillman;1998,RonnieHenson,Baltimore,MD) - RonnieHenson,Baltimore,MD
TTITLE8=LikeTheFirstTime(ChadElliott,GeorgePearson,BigBob,RHenson,TaraGeter-Tillman;1998,RonnieHenson,Baltimore,MD) - RonnieHenson,Baltimore,MD
TTITLE9=It'sNotYourSex(BigBob,TomJefferson;1998,RonnieHenson,Baltimore,MD) - RonnieHenson,Baltimore,MD
EXTD=
EXTT0=
EXTT1=
EXTT2=
EXTT3=
EXTT4=
EXTT5=
EXTT6=
EXTT7=
EXTT8=
EXTT9=
PLAYORDER=
